<mxfile host="Electron" agent="Mozilla/5.0 (Windows NT 10.0; Win64; x64) AppleWebKit/537.36 (KHTML, like Gecko) draw.io/24.7.17 Chrome/128.0.6613.36 Electron/32.0.1 Safari/537.36" version="24.7.17">
  <diagram name="Page-1" id="-H_mtQnk-PTXWXPvYvuk">
    <mxGraphModel dx="2060" dy="1182" grid="1" gridSize="10" guides="1" tooltips="1" connect="1" arrows="1" fold="1" page="1" pageScale="1" pageWidth="1169" pageHeight="827" math="0" shadow="0">
      <root>
        <mxCell id="0" />
        <mxCell id="1" parent="0" />
        <mxCell id="zA23MoTUsTF4_91t8viU-2" value="&lt;div&gt;shard2a&lt;/div&gt;MongoDB&lt;div&gt;&amp;lt;&amp;lt;:27051&amp;gt;&amp;gt;&lt;/div&gt;" style="shape=cylinder3;whiteSpace=wrap;html=1;boundedLbl=1;backgroundOutline=1;size=15;strokeColor=#000000;" parent="1" vertex="1">
          <mxGeometry x="850" y="500" width="80" height="100" as="geometry" />
        </mxCell>
        <mxCell id="JdLixN9FFLD3u57Kd0Cs-3" style="edgeStyle=orthogonalEdgeStyle;rounded=0;orthogonalLoop=1;jettySize=auto;html=1;entryX=0.5;entryY=0;entryDx=0;entryDy=0;curved=1;" edge="1" parent="1" source="zA23MoTUsTF4_91t8viU-3" target="rejV70VpgPA4rG30t3G9-2">
          <mxGeometry relative="1" as="geometry" />
        </mxCell>
        <mxCell id="JdLixN9FFLD3u57Kd0Cs-6" style="edgeStyle=orthogonalEdgeStyle;rounded=0;orthogonalLoop=1;jettySize=auto;html=1;exitX=0.661;exitY=0.017;exitDx=0;exitDy=0;exitPerimeter=0;" edge="1" parent="1" source="JdLixN9FFLD3u57Kd0Cs-1" target="sbluDSy5y6-SDcaf1rdz-1">
          <mxGeometry relative="1" as="geometry" />
        </mxCell>
        <mxCell id="zA23MoTUsTF4_91t8viU-3" value="pymongo-api #3&lt;div&gt;&amp;lt;&amp;lt;:8080&amp;gt;&amp;gt;&lt;/div&gt;" style="rounded=1;whiteSpace=wrap;html=1;" parent="1" vertex="1">
          <mxGeometry x="590" y="300" width="120" height="60" as="geometry" />
        </mxCell>
        <mxCell id="rejV70VpgPA4rG30t3G9-4" style="edgeStyle=orthogonalEdgeStyle;rounded=0;orthogonalLoop=1;jettySize=auto;html=1;curved=1;strokeColor=#000000;" parent="1" source="rejV70VpgPA4rG30t3G9-2" target="rejV70VpgPA4rG30t3G9-3" edge="1">
          <mxGeometry relative="1" as="geometry" />
        </mxCell>
        <mxCell id="rejV70VpgPA4rG30t3G9-2" value="mongo_router&lt;div&gt;&amp;lt;&amp;lt;:27020&amp;gt;&amp;gt;&lt;/div&gt;" style="rounded=0;whiteSpace=wrap;html=1;strokeColor=#000000;" parent="1" vertex="1">
          <mxGeometry x="520" y="490" width="120" height="60" as="geometry" />
        </mxCell>
        <mxCell id="rejV70VpgPA4rG30t3G9-3" value="&lt;div&gt;shard1a&lt;/div&gt;MongoDB&lt;div&gt;&amp;lt;&amp;lt;:27041&amp;gt;&amp;gt;&lt;/div&gt;" style="shape=cylinder3;whiteSpace=wrap;html=1;boundedLbl=1;backgroundOutline=1;size=15;strokeColor=#000000;" parent="1" vertex="1">
          <mxGeometry x="850" y="390" width="80" height="100" as="geometry" />
        </mxCell>
        <mxCell id="rejV70VpgPA4rG30t3G9-5" style="edgeStyle=orthogonalEdgeStyle;rounded=0;orthogonalLoop=1;jettySize=auto;html=1;exitX=1;exitY=0.5;exitDx=0;exitDy=0;entryX=0.042;entryY=0.607;entryDx=0;entryDy=0;entryPerimeter=0;curved=1;strokeColor=#000000;" parent="1" source="rejV70VpgPA4rG30t3G9-2" target="zA23MoTUsTF4_91t8viU-2" edge="1">
          <mxGeometry relative="1" as="geometry" />
        </mxCell>
        <mxCell id="rejV70VpgPA4rG30t3G9-9" style="edgeStyle=orthogonalEdgeStyle;rounded=0;orthogonalLoop=1;jettySize=auto;html=1;strokeColor=#000000;dashed=1;" parent="1" source="rejV70VpgPA4rG30t3G9-6" edge="1">
          <mxGeometry relative="1" as="geometry">
            <mxPoint x="580" y="550" as="targetPoint" />
            <Array as="points">
              <mxPoint x="580" y="650" />
            </Array>
          </mxGeometry>
        </mxCell>
        <mxCell id="rejV70VpgPA4rG30t3G9-6" value="configSrv&lt;div&gt;&amp;lt;&amp;lt;:27017&amp;gt;&amp;gt;&lt;/div&gt;" style="whiteSpace=wrap;html=1;aspect=fixed;strokeColor=#000000;" parent="1" vertex="1">
          <mxGeometry x="650" y="610" width="80" height="80" as="geometry" />
        </mxCell>
        <mxCell id="rejV70VpgPA4rG30t3G9-7" style="edgeStyle=orthogonalEdgeStyle;rounded=0;orthogonalLoop=1;jettySize=auto;html=1;entryX=0;entryY=0;entryDx=0;entryDy=32.5;entryPerimeter=0;strokeColor=#000000;dashed=1;dashPattern=8 8;" parent="1" source="rejV70VpgPA4rG30t3G9-6" target="rejV70VpgPA4rG30t3G9-3" edge="1">
          <mxGeometry relative="1" as="geometry" />
        </mxCell>
        <mxCell id="rejV70VpgPA4rG30t3G9-8" style="edgeStyle=orthogonalEdgeStyle;rounded=0;orthogonalLoop=1;jettySize=auto;html=1;entryX=0;entryY=0;entryDx=0;entryDy=32.5;entryPerimeter=0;strokeColor=#000000;dashed=1;dashPattern=8 8;" parent="1" source="rejV70VpgPA4rG30t3G9-6" target="zA23MoTUsTF4_91t8viU-2" edge="1">
          <mxGeometry relative="1" as="geometry" />
        </mxCell>
        <mxCell id="tmBIMcB8l2azLLzBuPeM-1" value="&lt;div&gt;shard1b&lt;/div&gt;MongoDB&lt;div&gt;&amp;lt;&amp;lt;:27042&amp;gt;&amp;gt;&lt;/div&gt;" style="shape=cylinder3;whiteSpace=wrap;html=1;boundedLbl=1;backgroundOutline=1;size=15;strokeColor=#000000;" parent="1" vertex="1">
          <mxGeometry x="940" y="390" width="80" height="100" as="geometry" />
        </mxCell>
        <mxCell id="tmBIMcB8l2azLLzBuPeM-2" value="&lt;div&gt;shard1c&lt;/div&gt;MongoDB&lt;div&gt;&amp;lt;&amp;lt;:27043&amp;gt;&amp;gt;&lt;/div&gt;" style="shape=cylinder3;whiteSpace=wrap;html=1;boundedLbl=1;backgroundOutline=1;size=15;strokeColor=#000000;" parent="1" vertex="1">
          <mxGeometry x="1030" y="390" width="80" height="100" as="geometry" />
        </mxCell>
        <mxCell id="tmBIMcB8l2azLLzBuPeM-3" value="&lt;div&gt;shard2b&lt;/div&gt;MongoDB&lt;div&gt;&amp;lt;&amp;lt;:27052&amp;gt;&amp;gt;&lt;/div&gt;" style="shape=cylinder3;whiteSpace=wrap;html=1;boundedLbl=1;backgroundOutline=1;size=15;strokeColor=#000000;" parent="1" vertex="1">
          <mxGeometry x="940" y="500" width="80" height="100" as="geometry" />
        </mxCell>
        <mxCell id="tmBIMcB8l2azLLzBuPeM-4" value="&lt;div&gt;shard2c&lt;/div&gt;MongoDB&lt;div&gt;&amp;lt;&amp;lt;:27053&amp;gt;&amp;gt;&lt;/div&gt;" style="shape=cylinder3;whiteSpace=wrap;html=1;boundedLbl=1;backgroundOutline=1;size=15;strokeColor=#000000;" parent="1" vertex="1">
          <mxGeometry x="1030" y="500" width="80" height="100" as="geometry" />
        </mxCell>
        <mxCell id="sbluDSy5y6-SDcaf1rdz-1" value="redis&lt;div&gt;&amp;lt;&amp;lt;:6379&amp;gt;&amp;gt;&lt;/div&gt;" style="shape=cylinder3;whiteSpace=wrap;html=1;boundedLbl=1;backgroundOutline=1;size=15;strokeColor=#000000;" parent="1" vertex="1">
          <mxGeometry x="940" y="200" width="75" height="110" as="geometry" />
        </mxCell>
        <mxCell id="JdLixN9FFLD3u57Kd0Cs-4" style="edgeStyle=orthogonalEdgeStyle;rounded=0;orthogonalLoop=1;jettySize=auto;html=1;curved=1;entryX=0.5;entryY=0;entryDx=0;entryDy=0;" edge="1" parent="1" source="JdLixN9FFLD3u57Kd0Cs-1" target="rejV70VpgPA4rG30t3G9-2">
          <mxGeometry relative="1" as="geometry">
            <mxPoint x="520" y="520" as="targetPoint" />
          </mxGeometry>
        </mxCell>
        <mxCell id="JdLixN9FFLD3u57Kd0Cs-1" value="pymongo-api #2&lt;div&gt;&amp;lt;&amp;lt;:8080&amp;gt;&amp;gt;&lt;/div&gt;" style="rounded=1;whiteSpace=wrap;html=1;" vertex="1" parent="1">
          <mxGeometry x="440" y="300" width="120" height="60" as="geometry" />
        </mxCell>
        <mxCell id="JdLixN9FFLD3u57Kd0Cs-5" style="edgeStyle=orthogonalEdgeStyle;rounded=0;orthogonalLoop=1;jettySize=auto;html=1;curved=1;exitX=0.5;exitY=1;exitDx=0;exitDy=0;" edge="1" parent="1" source="JdLixN9FFLD3u57Kd0Cs-2">
          <mxGeometry relative="1" as="geometry">
            <mxPoint x="580" y="490" as="targetPoint" />
          </mxGeometry>
        </mxCell>
        <mxCell id="JdLixN9FFLD3u57Kd0Cs-2" value="pymongo-api #1&lt;div&gt;&amp;lt;&amp;lt;:8080&amp;gt;&amp;gt;&lt;/div&gt;" style="rounded=1;whiteSpace=wrap;html=1;" vertex="1" parent="1">
          <mxGeometry x="280" y="300" width="120" height="60" as="geometry" />
        </mxCell>
        <mxCell id="JdLixN9FFLD3u57Kd0Cs-7" style="edgeStyle=orthogonalEdgeStyle;rounded=0;orthogonalLoop=1;jettySize=auto;html=1;entryX=0;entryY=0.5;entryDx=0;entryDy=0;entryPerimeter=0;" edge="1" parent="1" source="JdLixN9FFLD3u57Kd0Cs-2" target="sbluDSy5y6-SDcaf1rdz-1">
          <mxGeometry relative="1" as="geometry">
            <Array as="points">
              <mxPoint x="370" y="255" />
            </Array>
          </mxGeometry>
        </mxCell>
        <mxCell id="JdLixN9FFLD3u57Kd0Cs-8" style="edgeStyle=orthogonalEdgeStyle;rounded=0;orthogonalLoop=1;jettySize=auto;html=1;entryX=0;entryY=0.5;entryDx=0;entryDy=0;entryPerimeter=0;" edge="1" parent="1" source="zA23MoTUsTF4_91t8viU-3" target="sbluDSy5y6-SDcaf1rdz-1">
          <mxGeometry relative="1" as="geometry">
            <Array as="points">
              <mxPoint x="680" y="255" />
            </Array>
          </mxGeometry>
        </mxCell>
        <mxCell id="JdLixN9FFLD3u57Kd0Cs-10" style="edgeStyle=orthogonalEdgeStyle;rounded=0;orthogonalLoop=1;jettySize=auto;html=1;curved=1;exitX=0.25;exitY=1;exitDx=0;exitDy=0;" edge="1" parent="1" source="JdLixN9FFLD3u57Kd0Cs-23" target="JdLixN9FFLD3u57Kd0Cs-2">
          <mxGeometry relative="1" as="geometry" />
        </mxCell>
        <mxCell id="JdLixN9FFLD3u57Kd0Cs-11" style="edgeStyle=orthogonalEdgeStyle;rounded=0;orthogonalLoop=1;jettySize=auto;html=1;exitX=0.5;exitY=1;exitDx=0;exitDy=0;" edge="1" parent="1" source="JdLixN9FFLD3u57Kd0Cs-23" target="JdLixN9FFLD3u57Kd0Cs-1">
          <mxGeometry relative="1" as="geometry" />
        </mxCell>
        <mxCell id="JdLixN9FFLD3u57Kd0Cs-12" style="edgeStyle=orthogonalEdgeStyle;rounded=0;orthogonalLoop=1;jettySize=auto;html=1;curved=1;exitX=0.75;exitY=1;exitDx=0;exitDy=0;" edge="1" parent="1" source="JdLixN9FFLD3u57Kd0Cs-23" target="zA23MoTUsTF4_91t8viU-3">
          <mxGeometry relative="1" as="geometry" />
        </mxCell>
        <mxCell id="JdLixN9FFLD3u57Kd0Cs-9" value="Consul" style="whiteSpace=wrap;html=1;aspect=fixed;" vertex="1" parent="1">
          <mxGeometry x="790" y="118" width="80" height="80" as="geometry" />
        </mxCell>
        <mxCell id="JdLixN9FFLD3u57Kd0Cs-15" value="Запрос кэшируемых данных" style="text;html=1;align=center;verticalAlign=middle;whiteSpace=wrap;rounded=0;" vertex="1" parent="1">
          <mxGeometry x="730" y="230" width="180" height="30" as="geometry" />
        </mxCell>
        <mxCell id="JdLixN9FFLD3u57Kd0Cs-16" value="Запрос сервисов&amp;nbsp;&lt;div&gt;по протоколу обслуживания&lt;/div&gt;" style="text;html=1;align=center;verticalAlign=middle;whiteSpace=wrap;rounded=0;" vertex="1" parent="1">
          <mxGeometry x="400" y="210" width="230" height="30" as="geometry" />
        </mxCell>
        <mxCell id="JdLixN9FFLD3u57Kd0Cs-17" value="Доступ данных с БД" style="text;html=1;align=center;verticalAlign=middle;whiteSpace=wrap;rounded=0;" vertex="1" parent="1">
          <mxGeometry x="430" y="440" width="130" height="30" as="geometry" />
        </mxCell>
        <mxCell id="JdLixN9FFLD3u57Kd0Cs-18" value="etcd" style="shape=cylinder3;whiteSpace=wrap;html=1;boundedLbl=1;backgroundOutline=1;size=15;" vertex="1" parent="1">
          <mxGeometry x="200" y="180" width="60" height="80" as="geometry" />
        </mxCell>
        <mxCell id="JdLixN9FFLD3u57Kd0Cs-30" style="edgeStyle=orthogonalEdgeStyle;rounded=0;orthogonalLoop=1;jettySize=auto;html=1;" edge="1" parent="1" source="JdLixN9FFLD3u57Kd0Cs-23">
          <mxGeometry relative="1" as="geometry">
            <mxPoint x="130" y="90" as="targetPoint" />
            <Array as="points">
              <mxPoint x="250" y="90" />
              <mxPoint x="130" y="90" />
            </Array>
          </mxGeometry>
        </mxCell>
        <mxCell id="JdLixN9FFLD3u57Kd0Cs-37" style="edgeStyle=orthogonalEdgeStyle;rounded=0;orthogonalLoop=1;jettySize=auto;html=1;entryX=0;entryY=0.5;entryDx=0;entryDy=0;" edge="1" parent="1" source="JdLixN9FFLD3u57Kd0Cs-23" target="JdLixN9FFLD3u57Kd0Cs-9">
          <mxGeometry relative="1" as="geometry" />
        </mxCell>
        <mxCell id="JdLixN9FFLD3u57Kd0Cs-23" value="apisix" style="rounded=0;whiteSpace=wrap;html=1;" vertex="1" parent="1">
          <mxGeometry x="440" y="128" width="120" height="60" as="geometry" />
        </mxCell>
        <mxCell id="JdLixN9FFLD3u57Kd0Cs-28" style="edgeStyle=orthogonalEdgeStyle;rounded=0;orthogonalLoop=1;jettySize=auto;html=1;entryX=0.75;entryY=0;entryDx=0;entryDy=0;" edge="1" parent="1" source="JdLixN9FFLD3u57Kd0Cs-27" target="JdLixN9FFLD3u57Kd0Cs-23">
          <mxGeometry relative="1" as="geometry" />
        </mxCell>
        <mxCell id="JdLixN9FFLD3u57Kd0Cs-27" value="Client" style="shape=umlActor;verticalLabelPosition=bottom;verticalAlign=top;html=1;outlineConnect=0;" vertex="1" parent="1">
          <mxGeometry x="90" y="40" width="30" height="60" as="geometry" />
        </mxCell>
        <mxCell id="JdLixN9FFLD3u57Kd0Cs-29" value="Запрос клиента" style="text;html=1;align=center;verticalAlign=middle;whiteSpace=wrap;rounded=0;" vertex="1" parent="1">
          <mxGeometry x="130" y="50" width="110" height="30" as="geometry" />
        </mxCell>
        <mxCell id="JdLixN9FFLD3u57Kd0Cs-31" value="Данные приложения" style="text;html=1;align=center;verticalAlign=middle;whiteSpace=wrap;rounded=0;" vertex="1" parent="1">
          <mxGeometry x="140" y="70" width="120" height="30" as="geometry" />
        </mxCell>
        <mxCell id="JdLixN9FFLD3u57Kd0Cs-34" value="Запрос списка сервисов" style="text;html=1;align=center;verticalAlign=middle;whiteSpace=wrap;rounded=0;" vertex="1" parent="1">
          <mxGeometry x="600" y="133" width="160" height="30" as="geometry" />
        </mxCell>
        <mxCell id="JdLixN9FFLD3u57Kd0Cs-35" style="edgeStyle=orthogonalEdgeStyle;rounded=0;orthogonalLoop=1;jettySize=auto;html=1;entryX=0.5;entryY=0;entryDx=0;entryDy=0;entryPerimeter=0;exitX=0;exitY=0.5;exitDx=0;exitDy=0;" edge="1" parent="1" source="JdLixN9FFLD3u57Kd0Cs-23" target="JdLixN9FFLD3u57Kd0Cs-18">
          <mxGeometry relative="1" as="geometry" />
        </mxCell>
        <mxCell id="JdLixN9FFLD3u57Kd0Cs-38" value="Запрос роутов" style="text;html=1;align=center;verticalAlign=middle;whiteSpace=wrap;rounded=0;" vertex="1" parent="1">
          <mxGeometry x="230" y="133" width="180" height="30" as="geometry" />
        </mxCell>
      </root>
    </mxGraphModel>
  </diagram>
</mxfile>
